<svg width="244" height="40" viewBox="0 0 244 40" fill="none" xmlns="http://www.w3.org/2000/svg">
<g clip-path="url(#clip0_557_1401)">
<path d="M40.2489 0H20.9247V19.5045H40.2489V0Z" fill="#F5EC56"/>
<path fill-rule="evenodd" clip-rule="evenodd" d="M15.5265 19.5045H10.1283H5.95416H4.73015L0 9.75223L4.73015 0H5.51926H10.1283H15.5265H18.2256H20.9247L16.1004 9.75223L20.9247 19.5045H20.0011H15.5265Z" fill="black"/>
<path fill-rule="evenodd" clip-rule="evenodd" d="M45.6472 19.5045H51.0454H55.2241H56.4436L61.1782 9.75223L56.4436 0H55.659H51.0454H45.6472H42.9481H40.249L45.0778 9.75223L40.249 19.5045H41.1771H45.6472Z" fill="black"/>
<path fill-rule="evenodd" clip-rule="evenodd" d="M224.541 12.9698H229.755C229.836 13.4857 230.078 13.9337 230.473 14.3184C230.867 14.6985 231.401 14.9972 232.069 15.2053C232.737 15.4135 233.521 15.5176 234.427 15.5176C235.678 15.5176 236.669 15.3547 237.391 15.0334C238.117 14.7075 238.476 14.2324 238.476 13.5988C238.476 13.1146 238.269 12.7435 237.857 12.4765C237.445 12.2095 236.655 12.0195 235.485 11.9018L232.024 11.576C229.473 11.3452 227.617 10.7569 226.464 9.81559C225.312 8.87431 224.734 7.60719 224.734 6.00973C224.734 4.71094 225.11 3.61579 225.859 2.71976C226.608 1.82374 227.661 1.14493 229.02 0.687861C230.378 0.230795 231.966 0 233.777 0C235.557 0 237.14 0.253422 238.521 0.760267C239.906 1.26711 241.004 1.98665 241.82 2.91888C242.636 3.85111 243.076 4.93268 243.143 6.15907H237.956C237.888 5.71105 237.678 5.32187 237.323 5.00057C236.969 4.67474 236.489 4.42584 235.88 4.25387C235.27 4.07738 234.539 3.9914 233.678 3.9914C232.526 3.9914 231.611 4.14527 230.934 4.45299C230.257 4.76072 229.921 5.21326 229.921 5.81061C229.921 6.24505 230.123 6.59351 230.526 6.85598C230.93 7.12298 231.661 7.30399 232.714 7.40355L236.395 7.77916C238.157 7.9466 239.565 8.2317 240.619 8.63899C241.672 9.04627 242.439 9.60742 242.919 10.3224C243.399 11.0374 243.636 11.929 243.636 12.9924C243.636 14.3048 243.251 15.4497 242.475 16.4227C241.699 17.3956 240.614 18.1514 239.211 18.6944C237.812 19.2329 236.18 19.5045 234.319 19.5045C232.409 19.5045 230.724 19.2329 229.267 18.6944C227.809 18.1559 226.666 17.3911 225.846 16.4C225.025 15.4135 224.59 14.2686 224.541 12.9698Z" fill="black"/>
<path fill-rule="evenodd" clip-rule="evenodd" d="M175.168 14.2687L179.046 0.402832H184.458L178.827 19.1063H172.227L167.914 6.26323L163.578 19.1063H157.005L151.347 0.402832H156.785L160.673 14.2913L165.21 0.402832H170.622L175.168 14.2687Z" fill="black"/>
<path fill-rule="evenodd" clip-rule="evenodd" d="M101.31 4.99159V19.1063H96.1722V4.99159H89.1061V0.402832H108.376V4.99159H101.31Z" fill="black"/>
<path fill-rule="evenodd" clip-rule="evenodd" d="M68.6701 12.9698H73.8845C73.9652 13.4857 74.2073 13.9337 74.6018 14.3184C74.9964 14.6985 75.5299 14.9972 76.198 15.2053C76.866 15.4135 77.6507 15.5176 78.5563 15.5176C79.8073 15.5176 80.7981 15.3547 81.52 15.0334C82.2463 14.7075 82.605 14.2324 82.605 13.5988C82.605 13.1146 82.3987 12.7435 81.9863 12.4765C81.5738 12.2095 80.7847 12.0195 79.6145 11.9018L76.1532 11.576C73.602 11.3452 71.7458 10.7569 70.5935 9.81559C69.4413 8.87431 68.8629 7.60719 68.8629 6.00973C68.8629 4.71094 69.2395 3.61579 69.9883 2.71976C70.737 1.82374 71.7907 1.14493 73.1492 0.687861C74.5077 0.230795 76.0949 0 77.9062 0C79.6862 0 81.2689 0.253422 82.6498 0.760267C84.0352 1.26711 85.1337 1.98665 85.9497 2.91888C86.7657 3.85111 87.2051 4.93268 87.2724 6.15907H82.0849C82.0176 5.71105 81.8069 5.32187 81.4527 5.00057C81.0985 4.67474 80.6188 4.42584 80.009 4.25387C79.3992 4.07738 78.6684 3.9914 77.8076 3.9914C76.6553 3.9914 75.7407 4.14527 75.0637 4.45299C74.3866 4.76072 74.0504 5.21326 74.0504 5.81061C74.0504 6.24505 74.2521 6.59351 74.6556 6.85598C75.0592 7.12298 75.79 7.30399 76.8436 7.40355L80.5246 7.77916C82.2867 7.9466 83.6945 8.2317 84.7481 8.63899C85.8018 9.04627 86.5685 9.60742 87.0482 10.3224C87.5279 11.0374 87.7656 11.929 87.7656 12.9924C87.7656 14.3048 87.38 15.4497 86.6043 16.4227C85.8287 17.3956 84.7436 18.1514 83.3403 18.6944C81.9414 19.2329 80.3094 19.5045 78.4487 19.5045C76.5387 19.5045 74.8529 19.2329 73.3958 18.6944C71.9386 18.1559 70.7953 17.3911 69.9748 16.4C69.1543 15.4135 68.7194 14.2686 68.6701 12.9698Z" fill="black"/>
<path fill-rule="evenodd" clip-rule="evenodd" d="M190.937 0.402832L182.512 19.1063H187.973L189.515 15.5131H199.11L200.648 19.1063H206.109L197.68 0.402832H190.937ZM194.317 4.32635L197.326 11.3543H191.3L194.317 4.32635Z" fill="black"/>
<path fill-rule="evenodd" clip-rule="evenodd" d="M136.376 4.2449H137.228H141.541C142.366 4.2449 143.007 4.43044 143.469 4.80605C143.931 5.18165 144.16 5.71565 144.16 6.41256C144.16 7.0959 143.931 7.62537 143.469 8.01003C143.007 8.39016 142.366 8.58476 141.541 8.58476H136.376V4.2449ZM136.376 19.1063V12.3725H139.057L144.039 19.1063H149.97L144.648 12.0965C145.115 11.9788 145.559 11.8204 145.971 11.6258C147.025 11.128 147.85 10.4266 148.441 9.53056C149.033 8.63453 149.329 7.59369 149.329 6.41256C149.329 5.19976 149.033 4.14534 148.441 3.25836C147.85 2.36686 147.025 1.66994 145.971 1.1631C144.917 0.656254 143.68 0.402832 142.263 0.402832H131.265V19.1063H136.376Z" fill="black"/>
<path fill-rule="evenodd" clip-rule="evenodd" d="M114.335 0.402832L105.91 19.1063H111.371L112.914 15.5131H122.509L124.046 19.1063H129.507L121.078 0.402832H114.335ZM117.716 4.32635L120.724 11.3543H114.698L117.716 4.32635Z" fill="black"/>
<path fill-rule="evenodd" clip-rule="evenodd" d="M202.325 0.402832L211.023 11.5715V19.1063H216.166V11.4946L224.814 0.402832H219.129L213.579 7.55296L208.01 0.402832H202.325Z" fill="black"/>
<path fill-rule="evenodd" clip-rule="evenodd" d="M171.931 35.6284H175.419C175.473 35.9724 175.634 36.271 175.899 36.529C176.163 36.7869 176.518 36.9815 176.966 37.1218C177.414 37.2621 177.939 37.33 178.544 37.33C179.383 37.33 180.042 37.2214 180.526 37.0041C181.01 36.7869 181.252 36.4656 181.252 36.0448C181.252 35.7235 181.113 35.47 180.84 35.2935C180.566 35.1171 180.037 34.9858 179.252 34.9089L176.939 34.6917C175.231 34.5378 173.993 34.1441 173.222 33.5151C172.451 32.886 172.065 32.0398 172.065 30.9718C172.065 30.1029 172.316 29.3698 172.819 28.7724C173.321 28.1706 174.025 27.718 174.935 27.4148C175.845 27.1071 176.903 26.9578 178.114 26.9578C179.302 26.9578 180.36 27.1297 181.288 27.4646C182.212 27.804 182.947 28.2837 183.494 28.9082C184.041 29.5327 184.332 30.2523 184.377 31.0759H180.907C180.862 30.7772 180.723 30.5193 180.485 30.302C180.248 30.0848 179.925 29.9174 179.517 29.7997C179.109 29.6821 178.62 29.6232 178.046 29.6232C177.275 29.6232 176.665 29.7273 176.213 29.9309C175.76 30.1346 175.536 30.4378 175.536 30.8406C175.536 31.1302 175.67 31.3655 175.939 31.542C176.208 31.7185 176.697 31.8407 177.401 31.9085L179.862 32.1574C181.041 32.2706 181.983 32.4606 182.687 32.7322C183.391 33.0037 183.902 33.3793 184.225 33.859C184.543 34.3387 184.704 34.9315 184.704 35.642C184.704 36.5199 184.444 37.2847 183.929 37.9364C183.413 38.588 182.682 39.0904 181.75 39.4524C180.813 39.8144 179.723 39.9954 178.477 39.9954C177.199 39.9954 176.074 39.8144 175.096 39.4524C174.123 39.0904 173.357 38.579 172.81 37.9183C172.258 37.2621 171.962 36.4973 171.931 35.6284Z" fill="black"/>
<path fill-rule="evenodd" clip-rule="evenodd" d="M170.397 34.4971C170.276 35.5968 169.9 36.5607 169.272 37.3888C168.644 38.217 167.819 38.8596 166.802 39.3166C165.784 39.7737 164.614 40 163.291 40C161.847 40 160.587 39.7284 159.507 39.1809C158.426 38.6378 157.588 37.873 156.987 36.8955C156.386 35.9181 156.086 34.7777 156.086 33.4789C156.086 32.1801 156.386 31.0397 156.987 30.0622C157.588 29.0847 158.426 28.3244 159.507 27.7769C160.587 27.2338 161.847 26.9578 163.291 26.9578C164.614 26.9578 165.784 27.184 166.802 27.6411C167.819 28.0982 168.644 28.7408 169.272 29.5689C169.9 30.3971 170.276 31.361 170.397 32.4607H166.959C166.846 31.9267 166.631 31.4741 166.313 31.103C165.995 30.7319 165.578 30.4423 165.066 30.2432C164.555 30.0441 163.964 29.9445 163.291 29.9445C162.52 29.9445 161.852 30.0848 161.291 30.3699C160.731 30.655 160.3 31.0578 160.005 31.5872C159.709 32.1167 159.561 32.7458 159.561 33.4789C159.561 34.212 159.709 34.8455 160.005 35.3705C160.3 35.9 160.731 36.3027 161.291 36.5878C161.852 36.8729 162.52 37.0132 163.291 37.0132C163.964 37.0132 164.555 36.9182 165.066 36.7281C165.578 36.538 165.995 36.2575 166.313 35.8773C166.631 35.4972 166.846 35.0401 166.959 34.4926H170.397V34.4971Z" fill="black"/>
<path d="M153.893 27.2249H150.473V39.7331H153.893V27.2249Z" fill="black"/>
<path fill-rule="evenodd" clip-rule="evenodd" d="M135.246 27.2249H148.132V30.2931H143.406V39.7331H139.972V30.2931H135.246V27.2249Z" fill="black"/>
<path fill-rule="evenodd" clip-rule="evenodd" d="M121.379 35.6284H124.867C124.921 35.9724 125.082 36.271 125.347 36.529C125.611 36.7869 125.965 36.9815 126.414 37.1218C126.858 37.2621 127.387 37.33 127.992 37.33C128.83 37.33 129.49 37.2214 129.974 37.0041C130.458 36.7869 130.7 36.4656 130.7 36.0448C130.7 35.7235 130.561 35.47 130.288 35.2935C130.014 35.1171 129.485 34.9858 128.7 34.9089L126.387 34.6917C124.679 34.5378 123.441 34.1441 122.67 33.5151C121.899 32.886 121.513 32.0398 121.513 30.9718C121.513 30.1029 121.764 29.3698 122.267 28.7724C122.769 28.1706 123.473 27.718 124.383 27.4148C125.293 27.1071 126.351 26.9578 127.562 26.9578C128.75 26.9578 129.808 27.1297 130.736 27.4646C131.66 27.804 132.395 28.2837 132.942 28.9082C133.489 29.5327 133.78 30.2523 133.825 31.0759H130.355C130.31 30.7772 130.171 30.5193 129.933 30.302C129.696 30.0848 129.373 29.9174 128.965 29.7997C128.557 29.6821 128.068 29.6232 127.494 29.6232C126.723 29.6232 126.113 29.7273 125.661 29.9309C125.208 30.1346 124.984 30.4378 124.984 30.8406C124.984 31.1302 125.118 31.3655 125.387 31.542C125.656 31.7185 126.145 31.8407 126.849 31.9085L129.31 32.1574C130.489 32.2706 131.431 32.4606 132.135 32.7322C132.839 33.0037 133.35 33.3793 133.673 33.859C133.991 34.3387 134.152 34.9315 134.152 35.642C134.152 36.5199 133.892 37.2847 133.377 37.9364C132.861 38.588 132.13 39.0904 131.198 39.4524C130.261 39.8144 129.171 39.9954 127.925 39.9954C126.647 39.9954 125.522 39.8144 124.544 39.4524C123.571 39.0904 122.805 38.579 122.258 37.9183C121.702 37.2621 121.41 36.4973 121.379 35.6284Z" fill="black"/>
<path d="M118.532 27.2249H115.111V39.7331H118.532V27.2249Z" fill="black"/>
<path fill-rule="evenodd" clip-rule="evenodd" d="M109.6 38.0494C109.529 38.1354 109.453 38.2168 109.376 38.2983C108.865 38.8323 108.224 39.2486 107.457 39.5473C106.691 39.846 105.803 39.9953 104.79 39.9953C103.821 39.9953 102.911 39.855 102.064 39.5699C101.216 39.2848 100.467 38.8685 99.8263 38.3119C99.1807 37.7552 98.683 37.0719 98.3243 36.2619C97.9657 35.4518 97.7863 34.5241 97.7863 33.4787C97.7863 32.4334 97.9701 31.5057 98.3333 30.6956C98.6965 29.8856 99.2076 29.2022 99.8622 28.6456C100.517 28.089 101.279 27.6681 102.144 27.3875C103.01 27.1024 103.956 26.9622 104.978 26.9622C106.345 26.9622 107.525 27.1749 108.515 27.5957C109.506 28.0166 110.304 28.5958 110.91 29.3289C111.515 30.0621 111.905 30.9128 112.084 31.8813H108.632C108.52 31.4604 108.3 31.0938 107.964 30.7906C107.628 30.4829 107.211 30.2521 106.709 30.0892C106.206 29.9263 105.637 29.8494 105 29.8494C104.229 29.8494 103.561 29.9851 103.001 30.2567C102.44 30.5282 102.005 30.9355 101.696 31.474C101.387 32.0125 101.234 32.6823 101.234 33.4833C101.234 34.2933 101.4 34.9766 101.732 35.5333C102.064 36.0899 102.534 36.5062 103.144 36.7823C103.754 37.0583 104.476 37.1986 105.301 37.1986C106.103 37.1986 106.816 37.0855 107.43 36.8547C108.049 36.6284 108.542 36.289 108.91 35.8455C108.95 35.7957 108.991 35.746 109.027 35.6962H105.633V33.2615H112.21V39.7328H109.618V38.0494H109.6Z" fill="black"/>
<path fill-rule="evenodd" clip-rule="evenodd" d="M88.3036 36.9136C89.1061 36.9136 89.8011 36.7734 90.384 36.4973C90.9668 36.2213 91.4152 35.823 91.729 35.3117C92.0429 34.8003 92.1998 34.1894 92.1998 33.4789C92.1998 32.7684 92.0429 32.1574 91.729 31.6461C91.4152 31.1347 90.9668 30.741 90.384 30.4604C89.8011 30.1844 89.1061 30.0441 88.3036 30.0441C87.51 30.0441 86.824 30.1844 86.2367 30.4604C85.6538 30.7365 85.201 31.1347 84.8826 31.6461C84.5643 32.1574 84.4029 32.7684 84.4029 33.4789C84.4029 34.1894 84.5643 34.8003 84.8826 35.3117C85.201 35.823 85.6538 36.2167 86.2367 36.4973C86.824 36.7734 87.5145 36.9136 88.3036 36.9136ZM88.3036 40C86.8375 40 85.5507 39.7284 84.4477 39.1809C83.3403 38.6378 82.4795 37.873 81.8697 36.8955C81.2599 35.9181 80.9506 34.7777 80.9506 33.4789C80.9506 32.1801 81.2554 31.0397 81.8697 30.0622C82.4795 29.0847 83.3403 28.3244 84.4477 27.7769C85.5552 27.2338 86.842 26.9578 88.3036 26.9578C89.7787 26.9578 91.0699 27.2293 92.1684 27.7769C93.2714 28.3199 94.1277 29.0847 94.7465 30.0622C95.3652 31.0397 95.6701 32.1801 95.6701 33.4789C95.6701 34.7777 95.3607 35.9181 94.7465 36.8955C94.1277 37.873 93.2714 38.6333 92.1684 39.1809C91.0699 39.7284 89.7832 40 88.3036 40Z" fill="black"/>
<path fill-rule="evenodd" clip-rule="evenodd" d="M79.8207 36.6648H74.14H72.0911V35.5833V27.2249H68.6701V39.7331H79.8207V36.6648Z" fill="black"/>
</g>
<defs>
<clipPath id="clip0_557_1401">
<rect width="244" height="40" fill="white"/>
</clipPath>
</defs>
</svg>
