<svg width="18" height="18" viewBox="0 0 18 18" fill="none" xmlns="http://www.w3.org/2000/svg">
<path d="M16.95 17.9999C14.8 17.9999 12.704 17.5249 10.662 16.5749C8.62 15.6249 6.81167 14.3583 5.237 12.7749C3.66233 11.1916 2.39567 9.37896 1.437 7.33697C0.478334 5.29498 -0.000665972 3.19932 6.94927e-07 1.05V0.524998C6.94927e-07 0.341665 0.0166673 0.166666 0.0500006 0H5.9L6.825 5.02498L3.975 7.89997C4.675 9.09996 5.55433 10.225 6.613 11.275C7.67167 12.325 8.834 13.2333 10.1 13.9999L13 11.1L18 12.1V17.9499C17.8333 17.9666 17.6583 17.9793 17.475 17.9879C17.2917 17.9966 17.1167 18.0006 16.95 17.9999Z" fill="#9747FF"/>
</svg>
